<svg t="1600674177220" class="icon" viewBox="0 0 1024 1024" version="1.1" xmlns="http://www.w3.org/2000/svg" p-id="26249" width="200" height="200"><path d="M576.646378 1023.658678a102.396587 102.396587 0 0 1-48.399453-11.912136L396.633179 938.294057a99.085764 99.085764 0 0 1-52.358788-87.719743v-418.460718a20.752375 20.752375 0 0 0-7.986934-15.871471L31.316289 171.821473 28.005466 167.862138A99.085764 99.085764 0 0 1 100.263325 0.375454h822.722442a101.031299 101.031299 0 0 1 92.156928 59.560681 98.40312 98.40312 0 0 1-17.919402 107.926003l-3.959335 3.959335-308.89637 247.014699a21.161961 21.161961 0 0 0-7.338422 15.837339v488.670644A99.324689 99.324689 0 0 1 579.069764 1023.965868h-2.150328l-0.273058-0.30719zM83.09483 111.885337l303.640012 242.304457a100.10973 100.10973 0 0 1 37.818473 78.162728v418.460718a19.523616 19.523616 0 0 0 9.932469 17.919402l131.613746 72.155462a22.527249 22.527249 0 0 0 20.547582 0 20.820639 20.820639 0 0 0 9.966601-17.919403V434.980701a99.427086 99.427086 0 0 1 37.135829-78.162728l304.322656-245.035032a20.411053 20.411053 0 0 0 1.979667-21.161962 19.967334 19.967334 0 0 0-17.919403-11.263624H99.956135a18.875104 18.875104 0 0 0-17.885271 11.263624 20.240392 20.240392 0 0 0 1.023966 21.264358zM984.28719 532.803573H764.919569a38.603513 38.603513 0 1 1 0-77.138762h219.367621a38.671778 38.671778 0 0 1 38.569381 38.569381 37.886737 37.886737 0 0 1-38.569381 38.569381z m0 145.300757H764.919569a38.603513 38.603513 0 1 1 0-77.138762h219.367621a38.671778 38.671778 0 0 1 38.569381 38.535249 37.886737 37.886737 0 0 1-38.569381 38.808306v-0.204793z m0 144.618113H764.919569a38.603513 38.603513 0 1 1 0-77.138762h219.367621c21.29849 0.034132 38.569381 17.305023 38.569381 38.603513a38.228059 38.228059 0 0 1-38.569381 38.774174v-0.238925z" p-id="26250" fill="#707070"></path></svg>