<svg t="1600679155158" class="icon" viewBox="0 0 1024 1024" version="1.1" xmlns="http://www.w3.org/2000/svg" p-id="28366" width="200" height="200"><path d="M859.893215 822.403932v103.497981c0 17.999649-14.599715 32.699362-32.699362 32.699362H196.806147c-17.999649 0-32.699362-14.599715-32.699362-32.699362V822.403932c0-17.999649-14.599715-32.699362-32.699363-32.699363s-32.699362 14.599715-32.699362 32.699363v168.896706c0 17.999649 14.599715 32.699362 32.699362 32.699362h760.98516c17.999649 0 32.699362-14.599715 32.699362-32.699362V822.403932c0-17.999649-14.599715-32.699362-32.699362-32.699363-17.999649 0-32.499366 14.699713-32.499367 32.699363zM597.698329 352.613093c0 44.899124-38.199255 81.098418-85.698329 81.298415-47.69907 0.199996-86.398315-36.099296-86.498313-81.198417-0.099998-44.699128 38.299253-81.098418 85.798327-81.298414 47.799068-0.199996 86.398315 36.099296 86.398315 81.198416m-229.495525-0.99998c-0.699986 74.898539 63.298766 135.89735 143.397204 136.697334 77.698485 0.799984 142.497221-59.898832 143.297205-134.297381 0.799984-74.898539-62.398783-135.697354-142.397223-136.89733-78.198475-1.099979-143.5972 59.898832-144.297186 134.497377" fill="#8a8a8a" p-id="28367"></path><path d="M870.293013 256.114975c-1.899963-6.499873-4.09992-12.79975-6.499874-19.099627-2.299955-6.199879-4.799906-12.499756-7.499853-18.599638-2.699947-5.999883-5.399895-12.099764-8.399837-17.999649-2.999941-5.799887-5.999883-11.699772-9.399816-17.299662-3.299936-5.599891-6.699869-11.29978-10.299799-16.699674-3.699928-5.499893-7.499854-11.199782-11.499776-16.499679-3.499932-4.59991-8.69983-7.999844-14.399719-9.699811-2.999941-0.899982-5.999883-1.299975-9.099823-1.299974-16.099686 0-29.099433 12.099764-29.099432 26.999473 0 7.299858 3.09994 13.799731 8.19984 18.699636 19.799614 27.499464 34.999317 58.698855 44.499132 92.79819 18.299643 65.898715 13.299741 130.997445-15.699694 193.496226C769.994969 538.009478 728.495778 599.008288 676.796786 653.907218c-51.199002 54.298941-104.997952 106.197929-161.096858 156.096955-1.299975 1.099979-2.699947 2.199957-4.299916 3.499932-5.199899-4.59991-10.199801-8.999824-15.299702-13.499737-60.598818-54.698933-119.097677-111.097833-172.79663-171.896647-39.599228-44.899124-70.598623-94.898149-97.198105-147.397126-23.699538-47.299078-32.999356-97.498099-29.399426-149.797078 8.799828-126.497533 106.797917-236.995378 237.495368-267.394786 53.998947-12.599754 110.997835-11.999766 164.496792 2.499952 15.499698 4.199918 30.599403 9.399817 45.199119 15.799691 7.299858 3.199938 14.399719 6.599871 21.399582 10.199801 7.799848 4.09992 15.099706 8.999824 24.299527 8.999825 16.199684 0 29.299429-12.099764 29.299428-26.899475 0-19.199626-21.199587-27.499464-36.699284-34.999318-17.799653-8.69983-36.299292-15.999688-55.39892-21.799575C607.698134 11.319749 587.998518 6.819837 567.998908 4.019892c-20.299604-2.899943-40.899202-4.199918-61.298805-3.999922-21.099589 0.299994-42.099179 2.299955-62.798775 5.799887-6.099881 0.99998-12.29976 2.299955-18.299643 3.599929-156.89694 34.499327-275.094635 165.496772-285.994423 316.39383-4.399914 60.99881 6.199879 119.597668 33.399349 174.996587 25.199509 51.598994 55.198924 100.99803 92.698192 145.597161 62.798775 74.698543 133.897389 142.097229 207.395956 207.295957 7.799848 6.899865 15.89969 13.299741 26.199489 15.499698 9.599813 1.999961 23.299546 1.699967 32.79936-2.199957 7.899846-3.299936 19.49962-13.699733 25.499503-19.199626 17.699655-15.999688 26.499483-25.399505 42.599169-39.399231 21.399583-18.599637 40.399212-39.299234 60.398822-59.298844l1.799965-1.799965c18.699635-18.499639 37.299273-37.099276 55.598916-55.89891 58.598857-60.298824 104.397964-128.597492 138.097307-203.896023 33.599345-75.198533 37.999259-152.997016 14.199723-231.395488" fill="#8a8a8a" p-id="28368"></path></svg>